<?xml version="1.0" encoding="utf-8"?>
<!-- Generator: Adobe Illustrator 28.3.0, SVG Export Plug-In . SVG Version: 6.00 Build 0)  -->
<svg version="1.1" id="Layer_1" xmlns="http://www.w3.org/2000/svg" xmlns:xlink="http://www.w3.org/1999/xlink" x="0px" y="0px"
	 viewBox="0 0 535 535" style="enable-background:new 0 0 535 535;" xml:space="preserve">
<style type="text/css">
	.st0{fill:#0F417A;}
	
		.st1{clip-path:url(#SVGID_00000080911899834793465460000007337909061883763128_);fill:url(#SVGID_00000109726491979701508480000005195392938879751864_);}
	
		.st2{clip-path:url(#SVGID_00000174566186514454601400000008242021360611077013_);fill:url(#SVGID_00000029725104763672146380000016158037608847194766_);}
	.st3{fill:#2FBC40;}
</style>
<g>
	<path d="M74.1,267c0.2-0.4,0.4-0.7,0.6-1.1C74.5,266.3,74.3,266.6,74.1,267"/>
	<path d="M74.7,265.9c0.2-0.4,0.4-0.7,0.6-1.1C75.1,265.2,74.9,265.6,74.7,265.9"/>
	<path d="M73.6,268.1c0.2-0.4,0.3-0.8,0.5-1.1C73.9,267.4,73.7,267.8,73.6,268.1"/>
	<path d="M121.7,273c0,0.1,0,0.2,0.1,0.3C121.7,273.2,121.7,273.1,121.7,273"/>
	<path d="M122.2,276.8c0,0.1,0,0.2,0,0.3C122.2,277,122.2,276.9,122.2,276.8"/>
	<path d="M120.2,268.2c0,0.1,0.1,0.1,0.1,0.2C120.2,268.3,120.2,268.3,120.2,268.2"/>
	<path d="M121,270.5c0,0.1,0.1,0.2,0.1,0.3C121.1,270.7,121.1,270.6,121,270.5"/>
	<path d="M119.6,267c0.1,0.1,0.1,0.2,0.2,0.4C119.8,267.3,119.7,267.2,119.6,267"/>
	<path d="M120.7,269.4c0,0.1,0.1,0.2,0.1,0.3C120.7,269.6,120.7,269.5,120.7,269.4"/>
	<path d="M121.9,274.2c0,0.1,0,0.2,0,0.2C121.9,274.4,121.9,274.3,121.9,274.2"/>
	<path d="M122.1,275.6c0,0.1,0,0.2,0,0.3C122.1,275.8,122.1,275.7,122.1,275.6"/>
	<path d="M121.4,271.9c0,0.1,0,0.1,0,0.2C121.5,272,121.5,271.9,121.4,271.9"/>
	<path d="M75.3,264.9c0.2-0.3,0.4-0.7,0.7-1C75.7,264.2,75.5,264.5,75.3,264.9"/>
	<path d="M77.4,261.9c0.3-0.3,0.5-0.6,0.8-0.9C78,261.3,77.7,261.6,77.4,261.9"/>
	<path d="M78.2,261c0.3-0.3,0.6-0.6,0.8-0.9C78.8,260.4,78.5,260.7,78.2,261"/>
	<path d="M76,263.8c0.2-0.3,0.5-0.7,0.7-1C76.4,263.2,76.2,263.5,76,263.8"/>
	<path d="M76.7,262.8c0.2-0.3,0.5-0.6,0.8-0.9C77.2,262.2,76.9,262.5,76.7,262.8"/>
	<path d="M122.1,275.9c0,0.3,0.1,0.6,0.1,0.9C122.2,276.5,122.2,276.2,122.1,275.9"/>
	<path d="M122,274.5c0.1,0.4,0.1,0.7,0.1,1.1C122.1,275.2,122,274.8,122,274.5"/>
	<path d="M121.5,272.1c0.1,0.3,0.1,0.6,0.2,0.9C121.6,272.7,121.6,272.4,121.5,272.1"/>
	<path d="M121.8,273.3c0.1,0.3,0.1,0.6,0.2,0.9C121.9,273.9,121.8,273.6,121.8,273.3"/>
	<path d="M122.2,277.1c0,0.4,0,0.8,0,1.2C122.2,277.9,122.2,277.5,122.2,277.1"/>
	<path d="M119.8,267.4c0.1,0.3,0.2,0.5,0.3,0.8C120.1,267.9,119.9,267.7,119.8,267.4"/>
	<path d="M120.3,268.4c0.1,0.3,0.3,0.7,0.4,1C120.5,269.1,120.4,268.7,120.3,268.4"/>
	<path d="M121.1,270.8c0.1,0.3,0.2,0.7,0.3,1C121.3,271.5,121.2,271.2,121.1,270.8"/>
	<path d="M119.6,267C119.6,267,119.6,267,119.6,267C119.6,267,119.6,267,119.6,267"/>
	<path d="M120.8,269.7c0.1,0.2,0.2,0.5,0.3,0.8C120.9,270.2,120.9,270,120.8,269.7"/>
	<path d="M121,286.1L121,286.1c0.8-2.5,1.2-5.1,1.2-7.8C122.2,281,121.8,283.6,121,286.1"/>
	<polyline points="76,263.8 76,263.8 76,263.8 	"/>
	<polyline points="74.7,265.9 74.7,265.9 74.7,265.9 	"/>
	<polyline points="76.7,262.9 76.7,262.8 76.7,262.9 	"/>
	<polyline points="75.3,264.9 75.3,264.9 75.3,264.9 	"/>
	<polyline points="79.1,260.1 79.1,260.1 79.1,260.1 	"/>
	<polyline points="78.2,261 78.2,261 78.2,261 	"/>
	<polyline points="74.1,267 74.1,267 74.1,267 	"/>
	<polyline points="73.6,268.1 73.6,268.1 73.6,268.1 73.6,268.1 	"/>
	<polyline points="77.4,261.9 77.4,261.9 77.4,261.9 	"/>
	<path d="M108.3,255.6c0.1,0.1,0.2,0.1,0.3,0.2C108.5,255.7,108.4,255.6,108.3,255.6"/>
	<polygon class="st0" points="148.6,254 116.7,229.7 75,227.7 107.2,253 133.9,253.6 133.9,264.7 136.2,264.7 136.2,253.7 	"/>
	<path class="st0" d="M133.6,266.3l-0.5,4.9c-0.1,1,0.7,1.9,1.8,1.9l0.5,0c1-0.1,1.7-0.9,1.6-1.9l-0.5-4.8H133.6z"/>
	<path class="st0" d="M91.2,243l-2.4,5.7c-0.3,0.8-0.3,1.7,0.2,2.5c2.5,4.1,12,16.6,32.9,12.9c0.9-0.2,1.7-0.8,2-1.6l2.9-6.8
		l-20.6-0.2L91.2,243z"/>
	<g>
		<defs>
			<path id="SVGID_1_" d="M114.6,267.5c0.1,0.2,0.2,0.5,0.1,0.9c0,0.2,0.1,0.3,0.3,0.4c0.2,0,0.3-0.1,0.4-0.2c0.2-1.1,0.6-0.5,0.9,0
				c0.1,0.2,0.3,0.5,0.6,0.4c1-0.4,1.4,0.6,2.2,0.8c0.6,0.1,0.8,1,0.6,1.6c-0.3,0.7-0.9,0.2-1.3,0c-0.3-0.1-0.7-0.3-1.1-0.2
				c-1.2,0.3-2.3-0.1-2.8-1.3c-0.4-1-1.1-1.3-1.9-1.1c-1.4,0.4-3.3-0.1-4.1,1.7c-0.5,1.1-1.2,2-1.8,3c-0.6,0.9-1.2,1.8-0.6,3
				c0.2,0.3,0.1,0.8,0,1.1c-0.7,1.5,0.5,2.4,1.1,3.3c0.7,1,1.4,2.1,3,1.6c0.5-0.2,1.1-0.1,1.7-0.2c1.5-0.3,2.5,0.8,2,2.2
				c-0.2,0.5-0.1,1,0,1.5h3.6h3.7c0.8-2.5,1.2-5.1,1.2-7.8c0-0.4,0-0.8,0-1.2c0-0.1,0-0.2,0-0.3c0-0.3,0-0.6-0.1-0.9
				c0-0.1,0-0.2,0-0.3c0-0.4-0.1-0.8-0.1-1.1c0-0.1,0-0.2,0-0.2c0-0.3-0.1-0.6-0.2-0.9c0-0.1,0-0.2-0.1-0.3
				c-0.1-0.3-0.1-0.6-0.2-0.9c0-0.1,0-0.1,0-0.2c-0.1-0.4-0.2-0.7-0.3-1c0-0.1-0.1-0.2-0.1-0.3c-0.1-0.3-0.2-0.5-0.3-0.8
				c0-0.1-0.1-0.2-0.1-0.3c-0.1-0.3-0.3-0.7-0.4-1c0-0.1-0.1-0.1-0.1-0.2c-0.1-0.3-0.2-0.5-0.3-0.8c0-0.1-0.1-0.1-0.1-0.2
				C117.9,267.4,116.2,267.5,114.6,267.5"/>
		</defs>
		<clipPath id="SVGID_00000183216573116919200020000006099462979479445934_">
			<use xlink:href="#SVGID_1_"  style="overflow:visible;"/>
		</clipPath>
		
			<linearGradient id="SVGID_00000039822867689271418050000002888789829911724206_" gradientUnits="userSpaceOnUse" x1="2.5986" y1="579.9387" x2="3.3824" y2="579.9387" gradientTransform="matrix(0 24.8263 24.8263 0 -14284.0391 202.0895)">
			<stop  offset="0" style="stop-color:#C8E02D"/>
			<stop  offset="1" style="stop-color:#2FBC40"/>
		</linearGradient>
		
			<rect x="105.2" y="267.2" style="clip-path:url(#SVGID_00000183216573116919200020000006099462979479445934_);fill:url(#SVGID_00000039822867689271418050000002888789829911724206_);" width="17" height="18.9"/>
	</g>
	<g>
		<defs>
			<path id="SVGID_00000086651395720954882780000005872892389653129871_" d="M79.1,260.1C79.1,260.1,79.1,260.1,79.1,260.1
				c-0.3,0.3-0.6,0.6-0.9,0.9c0,0,0,0,0,0c-0.3,0.3-0.5,0.6-0.8,0.9c0,0,0,0,0,0c-0.3,0.3-0.5,0.6-0.8,0.9c0,0,0,0,0,0
				c-0.2,0.3-0.5,0.7-0.7,1c0,0,0,0,0,0c-0.2,0.3-0.5,0.7-0.7,1c0,0,0,0,0,0c-0.2,0.3-0.4,0.7-0.6,1.1c0,0,0,0,0,0
				c-0.2,0.4-0.4,0.7-0.6,1.1c0,0,0,0,0,0c-0.2,0.4-0.4,0.7-0.5,1.1v0c0,0,0,0.1-0.1,0.1c0.2,0.2,0.4,0.2,0.5,0.2l0,0.1
				c0.1,0.5,0.9,1,1.2,1.2c0.1,0.4,0.3,1.1,0.4,1.2c0,0.8,0.7,1.2,0.8,1.3c0.3,0.4,1.1,0.5,1.3,0.5h0c0.2,0.5,0.3,1.3,0.3,1.3
				c-0.3,1.7-1.1,2-1.1,2c-1.6,1.1-0.2,4.3-0.1,4.7c0,1.3,0.2,1.5,0.4,1.6c0.1,0,0.2,0,0.2,0c0.7,0.5,1.4,1.1,1.6,1.3
				c-0.2,0.9,0,1.2,0,1.3l0.5,0.9c0.3,1,0.1,1.2,0,1.3c0,0-0.1,0.1-0.1,0.2c-0.1,0.3-0.4,1-0.4,1c-0.5,0.7-0.4,1.4-0.4,1.4l1.7,3.2
				c0,0.1,0.1,0.8,0.5,1.5l0,0l0,0c0,0,0.3,0.2,0.4,0.9c0,0.1,0,0.2,0,0.2l-0.1,0c0,0.2,0.2,0.8,0.4,0.8c0,0,0,0,0.1,0
				c0.1,0,0.2,0,0.3-0.2c0,0,0.5-0.6,0.5-1.7l0,0c0,0,0,0,0-0.1c0,0,0.1-0.1,0.2-0.1l0.2,0l0-0.2c0-0.1,0-0.3,0.1-0.3
				c0,0,0.1,0,0.2,0c0.1,0,0.2,0.1,0.3,0.1c0.5,0.2,0.7,0.1,1.1-0.8c0.1-0.2,0.2-0.3,0.2-0.4c0.2-0.2,0.3-0.4,0.5-0.5
				c0.1-0.1,0.2-0.3,0.2-0.5c0-0.2,0.1-0.3,0.1-0.4c0-0.1,0.4-0.6,0.8-0.9c0.2-0.2,0.7-0.7,0.8-0.9c0-0.1,0.3-0.2,0.6-0.3l0.1,0l0,0
				c0.5-0.8,1.1-0.9,1.1-0.9c0.4,0,1.1-0.8,1.3-1c0.5-0.6,0.6-1.5,0.6-1.6c0-0.4,0.8-0.9,1.3-1.2c0,0,0.3-0.2,0.9-0.7
				c0.2-0.2,0.3-0.4,0.3-0.7c0-0.6-0.4-1.4-0.9-1.8c-0.2-0.1-0.3-0.2-0.4-0.3c-0.3-0.3-0.5-0.5-1.1-0.9c-0.3-0.2-0.3-0.3-0.3-0.3
				c0,0,0,0,0.1-0.1c0.1,0,0.2-0.2,0.1-0.4c-0.1-0.1-0.3-0.2-0.7-0.4c-0.4-0.2-0.9-0.5-1-0.7c-0.2-0.3-0.1-0.8-0.1-0.8l0-0.1
				l-0.1-0.1c-0.5-0.3-1-0.7-1-0.9c-0.1-0.3-0.7-0.9-0.9-1.1c0-0.1,0-0.1-0.1-0.2c-0.2-0.2-0.5-0.3-1-0.4c-0.5,0-0.6-0.1-0.6-0.1
				c0-0.1-0.1-0.2-0.2-0.2c-0.1,0-0.1-0.1-0.2-0.1c-0.2,0-0.4-0.1-0.9-0.8c-0.4-0.7-0.7-0.7-1-0.8c-0.1,0-0.2,0-0.2-0.1
				c-0.3-0.2-0.6-0.3-0.7-0.3c-0.3-0.3-0.6-0.4-0.9-0.4c-0.3,0.1-0.4,0.4-0.4,0.4c-0.2,0.4-0.3,0.5-0.3,0.5l-0.1,0
				c-0.9,0.5-1.7-0.4-1.7-0.5c-0.2-0.3-0.5-0.6-0.5-0.7c0-0.3-0.6-1.1-0.7-1.3c-0.1-0.1-0.1-0.1-0.1-0.2c-0.1-0.2-0.2-0.3-0.5-0.5
				c0,0-0.1,0-0.1,0c0-0.1,0.1-0.2,0-0.5c-0.1-0.6,0.2-1,0.2-1.1c0.2-0.4,0.2-0.6,0-0.8c-0.2-0.2-0.6-0.1-0.6-0.1
				c-0.1,0-0.2,0-0.3,0c-0.1,0,0-0.2,0-0.2V266l0.8-0.7l0.6-0.7l0.5-0.6c0.3-0.4,1.2,0,1.4,0.1c0.1,0.6,0.9,0.8,1.1,0.9
				c0.3,0.8,0.5,1.1,0.8,1.1c0.4,0,0.5-0.8,0.5-1.2c0.1-0.8,1.5-1.7,1.5-1.7l0.1-0.1c0.2-0.4,1.7-0.5,2.6-0.5c1.5,0,2.3-1,2.3-1
				c1.2-1,2.4-0.6,2.5-0.6c0.6,0.1,2.1-0.5,2.4-0.8c0,0,0,0,0-0.1c-1.2-1-2.3-2-3.1-3c0,0-0.1,0-0.1,0c-0.1,0-0.7,0.2-0.9,0.2
				c-0.1,0-0.2,0.1-0.3,0c-0.1,0-0.1-0.1-0.1-0.1c0.1-1,0.3-1.2,0.3-1.3c0,0,0,0,0,0c-0.4-0.5-0.8-1-1.1-1.4
				C84.6,255.8,81.6,257.7,79.1,260.1"/>
		</defs>
		<clipPath id="SVGID_00000118398961470890928360000011062338545052256418_">
			<use xlink:href="#SVGID_00000086651395720954882780000005872892389653129871_"  style="overflow:visible;"/>
		</clipPath>
		
			<linearGradient id="SVGID_00000059998322621968058380000018310089429989364911_" gradientUnits="userSpaceOnUse" x1="1.8417" y1="583.3979" x2="2.6255" y2="583.3979" gradientTransform="matrix(1.3184 46.585 46.585 -1.3184 -27097.2285 934.5152)">
			<stop  offset="0" style="stop-color:#C8E02D"/>
			<stop  offset="1" style="stop-color:#2FBC40"/>
		</linearGradient>
		
			<polygon style="clip-path:url(#SVGID_00000118398961470890928360000011062338545052256418_);fill:url(#SVGID_00000059998322621968058380000018310089429989364911_);" points="
			93.5,253.9 94.7,296.5 73.5,297.1 72.3,254.5 		"/>
	</g>
	<path class="st0" d="M119.8,267.2c1.6,3.3,2.5,7.1,2.5,11.1c0,14.1-11.4,25.5-25.5,25.5s-25.5-11.4-25.5-25.5
		c0-10.9,6.8-20.1,16.4-23.8c-0.5-0.7-0.9-1.3-1.2-1.8c-0.3-0.4-0.5-0.9-0.6-1.4c-10.7,4.3-18.2,14.8-18.2,27
		c0,16.1,13,29.1,29.1,29.1s29.1-13,29.1-29.1c0-4.2-0.9-8.2-2.5-11.8c-0.4,0.2-0.8,0.3-1.2,0.4C121.5,267,120.7,267.1,119.8,267.2"
		/>
</g>
<g>
	<path class="st0" d="M178.8,277.6v-9.5h-11.5v9.5h-4.4v-23.5h4.4v9.9h11.5v-9.9h4.4v23.5H178.8z"/>
	<path class="st0" d="M190.6,270.7c0.3,2,2,3.5,4.9,3.5c1.5,0,3.5-0.6,4.4-1.5l2.6,2.6c-1.7,1.8-4.6,2.7-7.1,2.7
		c-5.7,0-9.1-3.5-9.1-8.8c0-5,3.4-8.7,8.8-8.7c5.5,0,9,3.4,8.4,10.2H190.6z M199.6,267.3c-0.3-2.1-1.9-3.2-4.3-3.2
		c-2.2,0-4,1.1-4.6,3.2H199.6z"/>
	<path class="st0" d="M210.7,254.1v23.4h-4.1v-23.4H210.7z"/>
	<path class="st0" d="M214.3,284.4V261h3.8l0.3,2.3c1.3-1.8,3.5-2.6,5.4-2.6c5.1,0,8.5,3.8,8.5,8.7c0,4.8-3.1,8.7-8.4,8.7
		c-1.7,0-4.3-0.5-5.5-2.3v8.9H214.3z M228.1,269.3c0-2.6-1.7-4.7-4.7-4.7c-3,0-4.7,2.1-4.7,4.7c0,2.6,1.9,4.7,4.7,4.7
		S228.1,271.9,228.1,269.3z"/>
	<path class="st0" d="M256.8,259.7c-0.8-1.3-3-2.6-5.6-2.6c-3.3,0-4.9,1.4-4.9,3.1c0,2,2.4,2.6,5.2,3c4.9,0.6,9.5,1.9,9.5,7.5
		c0,5.2-4.6,7.5-9.9,7.5c-4.8,0-8.5-1.5-10.2-5.8l3.7-1.9c1,2.6,3.8,3.7,6.6,3.7c2.8,0,5.4-1,5.4-3.5c0-2.2-2.3-3.1-5.4-3.5
		c-4.8-0.6-9.2-1.8-9.2-7.1c0-4.8,4.8-6.8,9.1-6.8c3.7,0,7.4,1,9.2,4.7L256.8,259.7z"/>
	<path class="st0" d="M270.3,256.3v4.7h4.6v3.5h-4.6v7.1c0,1.6,0.9,2.3,2.1,2.3c0.6,0,1.4-0.2,2-0.5l1.1,3.5
		c-1.2,0.5-2.1,0.7-3.4,0.7c-3.6,0.1-5.9-1.9-5.9-6v-7.1h-3.1V261h3.1v-4.3L270.3,256.3z"/>
	<path class="st0" d="M282.1,261v8.7c0,2.5,1.4,4.4,4,4.4c2.5,0,4.2-2.1,4.2-4.6V261h4.1v16.6h-3.7l-0.3-2.2
		c-1.7,1.7-3.3,2.5-5.6,2.5c-4,0-6.8-3-6.8-8.1V261H282.1z"/>
	<path class="st0" d="M315.1,254.1v23.4h-3.8l-0.3-2.3c-1.3,2-3.3,2.6-5.3,2.6c-4.9,0-8.5-3.2-8.5-8.7c0-5.7,3.6-8.7,8.4-8.7
		c1.7,0,4.5,0.9,5.4,2.6v-9.2H315.1z M301.3,269.2c0,2.9,2.1,4.9,4.7,4.9c2.6,0,4.8-1.9,4.8-4.9c0-2.9-2.2-4.8-4.8-4.8
		C303.4,264.4,301.3,266.3,301.3,269.2z"/>
	<path class="st0" d="M335.4,261l-10.1,23.4h-4.5l3.1-7.2l-6.6-16.3h4.8l2.5,7.1l1.6,4.7l1.7-4.6l3-7.2H335.4z"/>
	<path class="st0" d="M361.3,273.1H349l-2,4.4h-4.8l10.5-23.5h4.8l10.5,23.5h-4.8L361.3,273.1z M355.1,259l-4.4,10h8.7L355.1,259z"
		/>
	<path class="st0" d="M373.5,254.1v9.2c1-1.7,3.7-2.6,5.4-2.6c4.8,0,8.4,3,8.4,8.7c0,5.4-3.7,8.7-8.5,8.7c-2,0-4.1-0.7-5.3-2.6
		l-0.3,2.3h-3.8v-23.4H373.5z M373.8,269.2c0,3,2.2,4.9,4.8,4.9c2.6,0,4.7-2,4.7-4.9c0-3-2.1-4.8-4.7-4.8
		C376,264.4,373.8,266.4,373.8,269.2z"/>
	<path class="st0" d="M394.1,261l0.3,1.9c1.3-2,3-2.3,4.7-2.3c1.7,0,3.4,0.7,4.3,1.6l-1.8,3.6c-0.8-0.7-1.6-1.1-3-1.1
		c-2.1,0-4.1,1.1-4.1,4.2v8.7h-4.1V261H394.1z"/>
	<path class="st0" d="M421.3,269.3c0,4.8-3.3,8.6-8.6,8.6s-8.6-3.9-8.6-8.6c0-4.7,3.3-8.6,8.6-8.6
		C418,260.7,421.3,264.5,421.3,269.3z M408.2,269.3c0,2.5,1.5,4.9,4.5,4.9c3,0,4.5-2.3,4.5-4.9c0-2.5-1.7-4.9-4.5-4.9
		C409.8,264.4,408.2,266.8,408.2,269.3z"/>
	<path class="st0" d="M437.3,261h3.9v16.5h-3.9l-0.2-2.4c-0.9,1.9-3.5,2.9-5.4,2.9c-4.9,0-8.5-3-8.5-8.8c0-5.7,3.8-8.7,8.6-8.7
		c2.2,0,4.3,1,5.3,2.7L437.3,261z M427.3,269.2c0,3.2,2.2,5,4.9,5c6.4,0,6.4-10,0-10C429.5,264.2,427.3,266.1,427.3,269.2z"/>
	<path class="st0" d="M461.8,254.1v23.4H458l-0.3-2.3c-1.3,2-3.3,2.6-5.3,2.6c-4.9,0-8.5-3.2-8.5-8.7c0-5.7,3.6-8.7,8.4-8.7
		c1.7,0,4.5,0.9,5.4,2.6v-9.2H461.8z M448,269.2c0,2.9,2.1,4.9,4.7,4.9c2.6,0,4.8-1.9,4.8-4.9c0-2.9-2.2-4.8-4.8-4.8
		C450,264.4,448,266.3,448,269.2z"/>
</g>
<g>
	<path class="st3" d="M418.5,297.1c-0.4,0-0.7-0.1-1-0.4c-0.3-0.3-0.4-0.6-0.4-1s0.1-0.8,0.4-1c0.3-0.3,0.6-0.4,1-0.4
		c0.4,0,0.7,0.1,1,0.4c0.3,0.3,0.4,0.6,0.4,1s-0.1,0.8-0.4,1C419.2,297,418.9,297.1,418.5,297.1z"/>
	<path class="st3" d="M427.5,297.1c-1.1,0-2.1-0.2-3-0.7c-0.9-0.5-1.6-1.1-2.1-2c-0.5-0.8-0.7-1.8-0.7-2.9c0-1.1,0.2-2.1,0.7-2.9
		c0.5-0.8,1.2-1.5,2.1-2c0.9-0.5,1.9-0.7,3-0.7c1,0,1.9,0.2,2.7,0.6c0.8,0.4,1.4,1,1.8,1.7l-1.5,1c-0.4-0.5-0.8-0.9-1.3-1.2
		c-0.5-0.3-1.1-0.4-1.7-0.4c-0.7,0-1.4,0.2-1.9,0.5c-0.6,0.3-1,0.8-1.3,1.3c-0.3,0.6-0.5,1.3-0.5,2s0.2,1.5,0.5,2s0.8,1,1.3,1.3
		c0.6,0.3,1.2,0.5,1.9,0.5c0.6,0,1.1-0.1,1.7-0.4c0.5-0.3,1-0.7,1.3-1.2l1.5,1c-0.4,0.8-1,1.3-1.8,1.7
		C429.4,296.9,428.5,297.1,427.5,297.1z"/>
	<path class="st3" d="M438.7,297.1c-1.1,0-2.1-0.2-2.9-0.7c-0.9-0.5-1.5-1.1-2-2c-0.5-0.8-0.7-1.8-0.7-2.9c0-1.1,0.2-2.1,0.7-2.9
		c0.5-0.8,1.2-1.5,2-2c0.9-0.5,1.8-0.7,2.9-0.7c1.1,0,2.1,0.2,2.9,0.7c0.9,0.5,1.5,1.1,2,2c0.5,0.8,0.7,1.8,0.7,2.9
		c0,1.1-0.2,2.1-0.7,2.9c-0.5,0.8-1.2,1.5-2,2C440.8,296.9,439.8,297.1,438.7,297.1z M438.7,295.4c0.7,0,1.3-0.2,1.9-0.5
		s1-0.8,1.3-1.4c0.3-0.6,0.5-1.3,0.5-2c0-0.8-0.2-1.5-0.5-2c-0.3-0.6-0.8-1-1.3-1.3s-1.2-0.5-1.9-0.5c-0.7,0-1.3,0.2-1.9,0.5
		c-0.6,0.3-1,0.8-1.3,1.3c-0.3,0.6-0.5,1.3-0.5,2c0,0.8,0.2,1.5,0.5,2c0.3,0.6,0.8,1,1.3,1.4C437.4,295.2,438,295.4,438.7,295.4z"/>
	<path class="st3" d="M460.9,285.9c0.9,0,1.7,0.2,2.3,0.5s1.2,0.9,1.6,1.6c0.4,0.7,0.6,1.6,0.6,2.7v6.3h-2v-6.1
		c0-1.1-0.2-1.9-0.7-2.4c-0.5-0.5-1.2-0.8-2.1-0.8c-0.7,0-1.2,0.1-1.7,0.4c-0.5,0.3-0.9,0.7-1.1,1.2c-0.3,0.5-0.4,1.2-0.4,2v5.6h-2
		v-6.1c0-1.1-0.2-1.9-0.7-2.4c-0.5-0.5-1.2-0.8-2.1-0.8c-0.6,0-1.2,0.1-1.7,0.4c-0.5,0.3-0.9,0.7-1.2,1.2c-0.3,0.5-0.4,1.2-0.4,2
		v5.6h-2v-11h1.9v2.9l-0.3-0.7c0.3-0.7,0.9-1.3,1.6-1.7c0.7-0.4,1.6-0.6,2.5-0.6c1,0,2,0.3,2.7,0.8s1.3,1.3,1.5,2.3l-0.8-0.3
		c0.3-0.8,0.9-1.5,1.7-2C458.8,286.2,459.8,285.9,460.9,285.9z"/>
</g>
<rect x="162.5" y="290.1" class="st3" width="246.9" height="1.6"/>
</svg>
